<svg xmlns="http://www.w3.org/2000/svg" xmlns:xlink="http://www.w3.org/1999/xlink" width="500" zoomAndPan="magnify" viewBox="0 0 375 112.499997" height="150" preserveAspectRatio="xMidYMid meet" version="1.0"><defs><g/><clipPath id="a92b5ca776"><path d="M 3 0 L 372 0 L 372 112.003906 L 3 112.003906 Z M 3 0 " clip-rule="nonzero"/></clipPath><clipPath id="b5e8e760a5"><rect x="0" width="369" y="0" height="113"/></clipPath></defs><g clip-path="url(#a92b5ca776)"><g transform="matrix(1, 0, 0, 1, 3, 0)"><g clip-path="url(#b5e8e760a5)"><g fill="#0554f2" fill-opacity="1"><g transform="translate(1.042941, 85.666857)"><g><path d="M 45.796875 -11.375 L 21.75 -11.375 L 17.890625 0 L 1.46875 0 L 24.78125 -64.421875 L 42.953125 -64.421875 L 66.25 0 L 49.640625 0 Z M 41.75 -23.484375 L 33.765625 -47.078125 L 25.875 -23.484375 Z M 41.75 -23.484375 "/></g></g></g><g fill="#0554f2" fill-opacity="1"><g transform="translate(68.671636, 85.666857)"><g><path d="M 13.578125 -56.53125 C 10.828125 -56.53125 8.578125 -57.335938 6.828125 -58.953125 C 5.085938 -60.578125 4.21875 -62.582031 4.21875 -64.96875 C 4.21875 -67.414062 5.085938 -69.445312 6.828125 -71.0625 C 8.578125 -72.6875 10.828125 -73.5 13.578125 -73.5 C 16.273438 -73.5 18.492188 -72.6875 20.234375 -71.0625 C 21.972656 -69.445312 22.84375 -67.414062 22.84375 -64.96875 C 22.84375 -62.582031 21.972656 -60.578125 20.234375 -58.953125 C 18.492188 -57.335938 16.273438 -56.53125 13.578125 -56.53125 Z M 21.375 -51.203125 L 21.375 0 L 5.6875 0 L 5.6875 -51.203125 Z M 21.375 -51.203125 "/></g></g></g><g fill="#0a1a2f" fill-opacity="1"><g transform="translate(95.754296, 85.666857)"><g><path d="M 2.5625 -25.609375 C 2.5625 -30.929688 3.644531 -35.578125 5.8125 -39.546875 C 7.988281 -43.523438 11.019531 -46.582031 14.90625 -48.71875 C 18.789062 -50.863281 23.242188 -51.9375 28.265625 -51.9375 C 34.691406 -51.9375 40.0625 -50.253906 44.375 -46.890625 C 48.6875 -43.523438 51.515625 -38.785156 52.859375 -32.671875 L 36.15625 -32.671875 C 34.75 -36.585938 32.023438 -38.546875 27.984375 -38.546875 C 25.109375 -38.546875 22.8125 -37.425781 21.09375 -35.1875 C 19.382812 -32.957031 18.53125 -29.765625 18.53125 -25.609375 C 18.53125 -21.441406 19.382812 -18.238281 21.09375 -16 C 22.8125 -13.769531 25.109375 -12.65625 27.984375 -12.65625 C 32.023438 -12.65625 34.75 -14.613281 36.15625 -18.53125 L 52.859375 -18.53125 C 51.515625 -12.539062 48.671875 -7.832031 44.328125 -4.40625 C 39.984375 -0.976562 34.628906 0.734375 28.265625 0.734375 C 23.242188 0.734375 18.789062 -0.332031 14.90625 -2.46875 C 11.019531 -4.613281 7.988281 -7.675781 5.8125 -11.65625 C 3.644531 -15.632812 2.5625 -20.285156 2.5625 -25.609375 Z M 2.5625 -25.609375 "/></g></g></g><g fill="#0a1a2f" fill-opacity="1"><g transform="translate(151.270393, 85.666857)"><g><path d="M 21.375 -42.671875 C 23.21875 -45.484375 25.515625 -47.695312 28.265625 -49.3125 C 31.015625 -50.9375 34.070312 -51.75 37.4375 -51.75 L 37.4375 -35.140625 L 33.125 -35.140625 C 29.207031 -35.140625 26.269531 -34.296875 24.3125 -32.609375 C 22.351562 -30.929688 21.375 -27.984375 21.375 -23.765625 L 21.375 0 L 5.6875 0 L 5.6875 -51.203125 L 21.375 -51.203125 Z M 21.375 -42.671875 "/></g></g></g><g fill="#0a1a2f" fill-opacity="1"><g transform="translate(190.544586, 85.666857)"><g><path d="M 53.953125 -26.421875 C 53.953125 -24.953125 53.863281 -23.425781 53.6875 -21.84375 L 18.171875 -21.84375 C 18.410156 -18.65625 19.429688 -16.21875 21.234375 -14.53125 C 23.046875 -12.851562 25.265625 -12.015625 27.890625 -12.015625 C 31.804688 -12.015625 34.53125 -13.671875 36.0625 -16.984375 L 52.765625 -16.984375 C 51.910156 -13.609375 50.363281 -10.578125 48.125 -7.890625 C 45.894531 -5.203125 43.097656 -3.09375 39.734375 -1.5625 C 36.367188 -0.03125 32.609375 0.734375 28.453125 0.734375 C 23.429688 0.734375 18.960938 -0.332031 15.046875 -2.46875 C 11.128906 -4.613281 8.066406 -7.675781 5.859375 -11.65625 C 3.660156 -15.632812 2.5625 -20.285156 2.5625 -25.609375 C 2.5625 -30.929688 3.644531 -35.578125 5.8125 -39.546875 C 7.988281 -43.523438 11.035156 -46.582031 14.953125 -48.71875 C 18.867188 -50.863281 23.367188 -51.9375 28.453125 -51.9375 C 33.398438 -51.9375 37.800781 -50.894531 41.65625 -48.8125 C 45.507812 -46.738281 48.519531 -43.773438 50.6875 -39.921875 C 52.863281 -36.066406 53.953125 -31.566406 53.953125 -26.421875 Z M 37.90625 -30.5625 C 37.90625 -33.25 36.984375 -35.390625 35.140625 -36.984375 C 33.304688 -38.578125 31.015625 -39.375 28.265625 -39.375 C 25.628906 -39.375 23.410156 -38.609375 21.609375 -37.078125 C 19.804688 -35.546875 18.691406 -33.375 18.265625 -30.5625 Z M 37.90625 -30.5625 "/></g></g></g><g fill="#0a1a2f" fill-opacity="1"><g transform="translate(247.070067, 85.666857)"><g><path d="M 2.5625 -25.6875 C 2.5625 -30.957031 3.554688 -35.578125 5.546875 -39.546875 C 7.535156 -43.523438 10.242188 -46.582031 13.671875 -48.71875 C 17.097656 -50.863281 20.921875 -51.9375 25.140625 -51.9375 C 28.503906 -51.9375 31.578125 -51.234375 34.359375 -49.828125 C 37.148438 -48.421875 39.335938 -46.523438 40.921875 -44.140625 L 40.921875 -67.90625 L 56.625 -67.90625 L 56.625 0 L 40.921875 0 L 40.921875 -7.34375 C 39.453125 -4.894531 37.359375 -2.9375 34.640625 -1.46875 C 31.921875 0 28.753906 0.734375 25.140625 0.734375 C 20.921875 0.734375 17.097656 -0.347656 13.671875 -2.515625 C 10.242188 -4.691406 7.535156 -7.78125 5.546875 -11.78125 C 3.554688 -15.789062 2.5625 -20.425781 2.5625 -25.6875 Z M 40.921875 -25.609375 C 40.921875 -29.515625 39.832031 -32.597656 37.65625 -34.859375 C 35.488281 -37.128906 32.847656 -38.265625 29.734375 -38.265625 C 26.609375 -38.265625 23.957031 -37.144531 21.78125 -34.90625 C 19.613281 -32.675781 18.53125 -29.601562 18.53125 -25.6875 C 18.53125 -21.78125 19.613281 -18.675781 21.78125 -16.375 C 23.957031 -14.082031 26.609375 -12.9375 29.734375 -12.9375 C 32.847656 -12.9375 35.488281 -14.066406 37.65625 -16.328125 C 39.832031 -18.597656 40.921875 -21.691406 40.921875 -25.609375 Z M 40.921875 -25.609375 "/></g></g></g><g fill="#0a1a2f" fill-opacity="1"><g transform="translate(309.376564, 85.666857)"><g><path d="M 58 -51.203125 L 25.875 24.3125 L 9 24.3125 L 20.734375 -1.75 L -0.09375 -51.203125 L 17.4375 -51.203125 L 29.265625 -19.171875 L 41.015625 -51.203125 Z M 58 -51.203125 "/></g></g></g></g></g></g></svg>