<svg xmlns="http://www.w3.org/2000/svg" xmlns:xlink="http://www.w3.org/1999/xlink" width="500" zoomAndPan="magnify" viewBox="0 0 375 112.499997" height="150" preserveAspectRatio="xMidYMid meet" version="1.0"><defs><g/></defs><g fill="#0554f2" fill-opacity="1"><g transform="translate(1.191325, 92.51972)"><g><path d="M 48.78125 -12.125 L 23.171875 -12.125 L 19.0625 0 L 1.5625 0 L 26.390625 -68.625 L 45.75 -68.625 L 70.578125 0 L 52.875 0 Z M 44.46875 -25.03125 L 35.96875 -50.140625 L 27.5625 -25.03125 Z M 44.46875 -25.03125 "/></g></g></g><g fill="#0554f2" fill-opacity="1"><g transform="translate(73.229636, 92.51972)"><g><path d="M 14.46875 -60.21875 C 11.53125 -60.21875 9.132812 -61.078125 7.28125 -62.796875 C 5.425781 -64.523438 4.5 -66.660156 4.5 -69.203125 C 4.5 -71.804688 5.425781 -73.972656 7.28125 -75.703125 C 9.132812 -77.429688 11.53125 -78.296875 14.46875 -78.296875 C 17.332031 -78.296875 19.691406 -77.429688 21.546875 -75.703125 C 23.410156 -73.972656 24.34375 -71.804688 24.34375 -69.203125 C 24.34375 -66.660156 23.410156 -64.523438 21.546875 -62.796875 C 19.691406 -61.078125 17.332031 -60.21875 14.46875 -60.21875 Z M 22.78125 -54.546875 L 22.78125 0 L 6.0625 0 L 6.0625 -54.546875 Z M 22.78125 -54.546875 "/></g></g></g><g fill="#ffffff" fill-opacity="1"><g transform="translate(102.074978, 92.51972)"><g><path d="M 3.21875 -34.40625 C 3.21875 -41.1875 4.679688 -47.226562 7.609375 -52.53125 C 10.546875 -57.84375 14.640625 -61.984375 19.890625 -64.953125 C 25.140625 -67.921875 31.085938 -69.40625 37.734375 -69.40625 C 45.878906 -69.40625 52.847656 -67.253906 58.640625 -62.953125 C 64.441406 -58.648438 68.320312 -52.785156 70.28125 -45.359375 L 51.90625 -45.359375 C 50.539062 -48.222656 48.601562 -50.40625 46.09375 -51.90625 C 43.582031 -53.40625 40.726562 -54.15625 37.53125 -54.15625 C 32.382812 -54.15625 28.210938 -52.363281 25.015625 -48.78125 C 21.828125 -45.195312 20.234375 -40.40625 20.234375 -34.40625 C 20.234375 -28.414062 21.828125 -23.625 25.015625 -20.03125 C 28.210938 -16.445312 32.382812 -14.65625 37.53125 -14.65625 C 40.726562 -14.65625 43.582031 -15.40625 46.09375 -16.90625 C 48.601562 -18.40625 50.539062 -20.585938 51.90625 -23.453125 L 70.28125 -23.453125 C 68.320312 -16.023438 64.441406 -10.175781 58.640625 -5.90625 C 52.847656 -1.644531 45.878906 0.484375 37.734375 0.484375 C 31.085938 0.484375 25.140625 -0.992188 19.890625 -3.953125 C 14.640625 -6.921875 10.546875 -11.039062 7.609375 -16.3125 C 4.679688 -21.59375 3.21875 -27.625 3.21875 -34.40625 Z M 3.21875 -34.40625 "/></g></g></g><g fill="#ffffff" fill-opacity="1"><g transform="translate(176.556922, 92.51972)"><g><path d="M 22.78125 -45.453125 C 24.726562 -48.453125 27.164062 -50.8125 30.09375 -52.53125 C 33.03125 -54.257812 36.289062 -55.125 39.875 -55.125 L 39.875 -37.4375 L 35.28125 -37.4375 C 31.113281 -37.4375 27.988281 -36.539062 25.90625 -34.75 C 23.820312 -32.957031 22.78125 -29.8125 22.78125 -25.3125 L 22.78125 0 L 6.0625 0 L 6.0625 -54.546875 L 22.78125 -54.546875 Z M 22.78125 -45.453125 "/></g></g></g><g fill="#ffffff" fill-opacity="1"><g transform="translate(218.391917, 92.51972)"><g><path d="M 57.484375 -28.15625 C 57.484375 -26.59375 57.382812 -24.960938 57.1875 -23.265625 L 19.359375 -23.265625 C 19.617188 -19.878906 20.707031 -17.289062 22.625 -15.5 C 24.550781 -13.707031 26.914062 -12.8125 29.71875 -12.8125 C 33.882812 -12.8125 36.785156 -14.566406 38.421875 -18.078125 L 56.203125 -18.078125 C 55.296875 -14.492188 53.648438 -11.269531 51.265625 -8.40625 C 48.890625 -5.539062 45.910156 -3.289062 42.328125 -1.65625 C 38.742188 -0.03125 34.734375 0.78125 30.296875 0.78125 C 24.953125 0.78125 20.195312 -0.359375 16.03125 -2.640625 C 11.863281 -4.921875 8.601562 -8.175781 6.25 -12.40625 C 3.90625 -16.644531 2.734375 -21.597656 2.734375 -27.265625 C 2.734375 -32.941406 3.890625 -37.894531 6.203125 -42.125 C 8.515625 -46.363281 11.753906 -49.625 15.921875 -51.90625 C 20.097656 -54.1875 24.890625 -55.328125 30.296875 -55.328125 C 35.578125 -55.328125 40.269531 -54.21875 44.375 -52 C 48.476562 -49.78125 51.6875 -46.617188 54 -42.515625 C 56.320312 -38.410156 57.484375 -33.625 57.484375 -28.15625 Z M 40.375 -32.546875 C 40.375 -35.421875 39.394531 -37.703125 37.4375 -39.390625 C 35.476562 -41.085938 33.035156 -41.9375 30.109375 -41.9375 C 27.304688 -41.9375 24.941406 -41.117188 23.015625 -39.484375 C 21.097656 -37.859375 19.910156 -35.546875 19.453125 -32.546875 Z M 40.375 -32.546875 "/></g></g></g><g fill="#ffffff" fill-opacity="1"><g transform="translate(278.603037, 92.51972)"><g><path d="M 2.734375 -27.375 C 2.734375 -32.976562 3.789062 -37.894531 5.90625 -42.125 C 8.03125 -46.363281 10.914062 -49.625 14.5625 -51.90625 C 18.207031 -54.1875 22.28125 -55.328125 26.78125 -55.328125 C 30.363281 -55.328125 33.640625 -54.578125 36.609375 -53.078125 C 39.578125 -51.578125 41.90625 -49.554688 43.59375 -47.015625 L 43.59375 -72.328125 L 60.3125 -72.328125 L 60.3125 0 L 43.59375 0 L 43.59375 -7.8125 C 42.03125 -5.207031 39.796875 -3.125 36.890625 -1.5625 C 33.992188 0 30.625 0.78125 26.78125 0.78125 C 22.28125 0.78125 18.207031 -0.375 14.5625 -2.6875 C 10.914062 -5 8.03125 -8.289062 5.90625 -12.5625 C 3.789062 -16.832031 2.734375 -21.769531 2.734375 -27.375 Z M 43.59375 -27.265625 C 43.59375 -31.441406 42.4375 -34.734375 40.125 -37.140625 C 37.8125 -39.554688 34.992188 -40.765625 31.671875 -40.765625 C 28.347656 -40.765625 25.53125 -39.570312 23.21875 -37.1875 C 20.90625 -34.8125 19.75 -31.539062 19.75 -27.375 C 19.75 -23.195312 20.90625 -19.882812 23.21875 -17.4375 C 25.53125 -15 28.347656 -13.78125 31.671875 -13.78125 C 34.992188 -13.78125 37.8125 -14.984375 40.125 -17.390625 C 42.4375 -19.804688 43.59375 -23.097656 43.59375 -27.265625 Z M 43.59375 -27.265625 "/></g></g></g><g fill="#ffffff" fill-opacity="1"><g transform="translate(344.972102, 92.51972)"><g><path d="M 14.46875 -60.21875 C 11.53125 -60.21875 9.132812 -61.078125 7.28125 -62.796875 C 5.425781 -64.523438 4.5 -66.660156 4.5 -69.203125 C 4.5 -71.804688 5.425781 -73.972656 7.28125 -75.703125 C 9.132812 -77.429688 11.53125 -78.296875 14.46875 -78.296875 C 17.332031 -78.296875 19.691406 -77.429688 21.546875 -75.703125 C 23.410156 -73.972656 24.34375 -71.804688 24.34375 -69.203125 C 24.34375 -66.660156 23.410156 -64.523438 21.546875 -62.796875 C 19.691406 -61.078125 17.332031 -60.21875 14.46875 -60.21875 Z M 22.78125 -54.546875 L 22.78125 0 L 6.0625 0 L 6.0625 -54.546875 Z M 22.78125 -54.546875 "/></g></g></g></svg>