<svg xmlns="http://www.w3.org/2000/svg" xmlns:xlink="http://www.w3.org/1999/xlink" width="500" zoomAndPan="magnify" viewBox="0 0 375 112.499997" height="150" preserveAspectRatio="xMidYMid meet" version="1.0"><defs><g/><clipPath id="6985dfdcc0"><path d="M 2 0 L 373 0 L 373 112.003906 L 2 112.003906 Z M 2 0 " clip-rule="nonzero"/></clipPath><clipPath id="69d0e0f8e4"><rect x="0" width="371" y="0" height="113"/></clipPath></defs><g clip-path="url(#6985dfdcc0)"><g transform="matrix(1, 0, 0, 1, 2, 0)"><g clip-path="url(#69d0e0f8e4)"><g fill="#0a1a2f" fill-opacity="1"><g transform="translate(0.664054, 91.714229)"><g><path d="M 2.875 -28.78125 C 2.875 -34.664062 3.988281 -39.832031 6.21875 -44.28125 C 8.445312 -48.738281 11.476562 -52.164062 15.3125 -54.5625 C 19.144531 -56.96875 23.425781 -58.171875 28.15625 -58.171875 C 32.195312 -58.171875 35.738281 -57.347656 38.78125 -55.703125 C 41.832031 -54.054688 44.179688 -51.894531 45.828125 -49.21875 L 45.828125 -57.34375 L 63.40625 -57.34375 L 63.40625 0 L 45.828125 0 L 45.828125 -8.125 C 44.117188 -5.445312 41.738281 -3.285156 38.6875 -1.640625 C 35.644531 0.00390625 32.101562 0.828125 28.0625 0.828125 C 23.394531 0.828125 19.144531 -0.382812 15.3125 -2.8125 C 11.476562 -5.25 8.445312 -8.710938 6.21875 -13.203125 C 3.988281 -17.691406 2.875 -22.882812 2.875 -28.78125 Z M 45.828125 -28.671875 C 45.828125 -33.054688 44.609375 -36.515625 42.171875 -39.046875 C 39.742188 -41.585938 36.785156 -42.859375 33.296875 -42.859375 C 29.804688 -42.859375 26.84375 -41.601562 24.40625 -39.09375 C 21.976562 -36.59375 20.765625 -33.15625 20.765625 -28.78125 C 20.765625 -24.394531 21.976562 -20.914062 24.40625 -18.34375 C 26.84375 -15.769531 29.804688 -14.484375 33.296875 -14.484375 C 36.785156 -14.484375 39.742188 -15.75 42.171875 -18.28125 C 44.609375 -20.820312 45.828125 -24.285156 45.828125 -28.671875 Z M 45.828125 -28.671875 "/></g></g></g><g fill="#0a1a2f" fill-opacity="1"><g transform="translate(70.441531, 91.714229)"><g><path d="M 15.203125 -63.296875 C 12.117188 -63.296875 9.601562 -64.203125 7.65625 -66.015625 C 5.707031 -67.835938 4.734375 -70.085938 4.734375 -72.765625 C 4.734375 -75.503906 5.707031 -77.78125 7.65625 -79.59375 C 9.601562 -81.40625 12.117188 -82.3125 15.203125 -82.3125 C 18.222656 -82.3125 20.707031 -81.40625 22.65625 -79.59375 C 24.613281 -77.78125 25.59375 -75.503906 25.59375 -72.765625 C 25.59375 -70.085938 24.613281 -67.835938 22.65625 -66.015625 C 20.707031 -64.203125 18.222656 -63.296875 15.203125 -63.296875 Z M 23.9375 -57.34375 L 23.9375 0 L 6.375 0 L 6.375 -57.34375 Z M 23.9375 -57.34375 "/></g></g></g><g fill="#0554f2" fill-opacity="1"><g transform="translate(100.76088, 91.714229)"><g><path d="M 2.875 -28.671875 C 2.875 -34.628906 4.085938 -39.832031 6.515625 -44.28125 C 8.953125 -48.738281 12.34375 -52.164062 16.6875 -54.5625 C 21.039062 -56.96875 26.03125 -58.171875 31.65625 -58.171875 C 38.84375 -58.171875 44.851562 -56.285156 49.6875 -52.515625 C 54.519531 -48.742188 57.6875 -43.429688 59.1875 -36.578125 L 40.484375 -36.578125 C 38.910156 -40.960938 35.863281 -43.15625 31.34375 -43.15625 C 28.125 -43.15625 25.554688 -41.90625 23.640625 -39.40625 C 21.722656 -36.90625 20.765625 -33.328125 20.765625 -28.671875 C 20.765625 -24.015625 21.722656 -20.4375 23.640625 -17.9375 C 25.554688 -15.4375 28.125 -14.1875 31.34375 -14.1875 C 35.863281 -14.1875 38.910156 -16.378906 40.484375 -20.765625 L 59.1875 -20.765625 C 57.6875 -14.046875 54.503906 -8.765625 49.640625 -4.921875 C 44.773438 -1.085938 38.78125 0.828125 31.65625 0.828125 C 26.03125 0.828125 21.039062 -0.367188 16.6875 -2.765625 C 12.34375 -5.171875 8.953125 -8.597656 6.515625 -13.046875 C 4.085938 -17.503906 2.875 -22.710938 2.875 -28.671875 Z M 2.875 -28.671875 "/></g></g></g><g fill="#0554f2" fill-opacity="1"><g transform="translate(162.93375, 91.714229)"><g><path d="M 23.9375 -47.78125 C 26 -50.9375 28.570312 -53.421875 31.65625 -55.234375 C 34.738281 -57.046875 38.160156 -57.953125 41.921875 -57.953125 L 41.921875 -39.359375 L 37.09375 -39.359375 C 32.707031 -39.359375 29.414062 -38.414062 27.21875 -36.53125 C 25.03125 -34.644531 23.9375 -31.335938 23.9375 -26.609375 L 23.9375 0 L 6.375 0 L 6.375 -57.34375 L 23.9375 -57.34375 Z M 23.9375 -47.78125 "/></g></g></g><g fill="#0554f2" fill-opacity="1"><g transform="translate(206.917204, 91.714229)"><g><path d="M 60.421875 -29.59375 C 60.421875 -27.945312 60.320312 -26.234375 60.125 -24.453125 L 20.34375 -24.453125 C 20.625 -20.890625 21.773438 -18.164062 23.796875 -16.28125 C 25.816406 -14.40625 28.296875 -13.46875 31.234375 -13.46875 C 35.617188 -13.46875 38.671875 -15.316406 40.390625 -19.015625 L 59.09375 -19.015625 C 58.132812 -15.242188 56.40625 -11.847656 53.90625 -8.828125 C 51.40625 -5.816406 48.269531 -3.453125 44.5 -1.734375 C 40.726562 -0.0234375 36.515625 0.828125 31.859375 0.828125 C 26.242188 0.828125 21.242188 -0.367188 16.859375 -2.765625 C 12.472656 -5.171875 9.046875 -8.597656 6.578125 -13.046875 C 4.109375 -17.503906 2.875 -22.710938 2.875 -28.671875 C 2.875 -34.628906 4.085938 -39.832031 6.515625 -44.28125 C 8.953125 -48.738281 12.363281 -52.164062 16.75 -54.5625 C 21.132812 -56.96875 26.171875 -58.171875 31.859375 -58.171875 C 37.410156 -58.171875 42.34375 -57.003906 46.65625 -54.671875 C 50.96875 -52.335938 54.335938 -49.015625 56.765625 -44.703125 C 59.203125 -40.390625 60.421875 -35.351562 60.421875 -29.59375 Z M 42.4375 -34.21875 C 42.4375 -37.238281 41.410156 -39.640625 39.359375 -41.421875 C 37.304688 -43.203125 34.738281 -44.09375 31.65625 -44.09375 C 28.707031 -44.09375 26.222656 -43.234375 24.203125 -41.515625 C 22.179688 -39.804688 20.929688 -37.375 20.453125 -34.21875 Z M 42.4375 -34.21875 "/></g></g></g><g fill="#0554f2" fill-opacity="1"><g transform="translate(270.220491, 91.714229)"><g><path d="M 2.875 -28.78125 C 2.875 -34.664062 3.988281 -39.832031 6.21875 -44.28125 C 8.445312 -48.738281 11.476562 -52.164062 15.3125 -54.5625 C 19.144531 -56.96875 23.425781 -58.171875 28.15625 -58.171875 C 31.925781 -58.171875 35.367188 -57.378906 38.484375 -55.796875 C 41.597656 -54.222656 44.046875 -52.101562 45.828125 -49.4375 L 45.828125 -76.046875 L 63.40625 -76.046875 L 63.40625 0 L 45.828125 0 L 45.828125 -8.21875 C 44.179688 -5.476562 41.832031 -3.285156 38.78125 -1.640625 C 35.738281 0.00390625 32.195312 0.828125 28.15625 0.828125 C 23.425781 0.828125 19.144531 -0.382812 15.3125 -2.8125 C 11.476562 -5.25 8.445312 -8.710938 6.21875 -13.203125 C 3.988281 -17.691406 2.875 -22.882812 2.875 -28.78125 Z M 45.828125 -28.671875 C 45.828125 -33.054688 44.609375 -36.515625 42.171875 -39.046875 C 39.742188 -41.585938 36.785156 -42.859375 33.296875 -42.859375 C 29.804688 -42.859375 26.84375 -41.601562 24.40625 -39.09375 C 21.976562 -36.59375 20.765625 -33.15625 20.765625 -28.78125 C 20.765625 -24.394531 21.976562 -20.914062 24.40625 -18.34375 C 26.84375 -15.769531 29.804688 -14.484375 33.296875 -14.484375 C 36.785156 -14.484375 39.742188 -15.75 42.171875 -18.28125 C 44.609375 -20.820312 45.828125 -24.285156 45.828125 -28.671875 Z M 45.828125 -28.671875 "/></g></g></g><g fill="#0554f2" fill-opacity="1"><g transform="translate(339.997981, 91.714229)"><g><path d="M 15.203125 -63.296875 C 12.117188 -63.296875 9.601562 -64.203125 7.65625 -66.015625 C 5.707031 -67.835938 4.734375 -70.085938 4.734375 -72.765625 C 4.734375 -75.503906 5.707031 -77.78125 7.65625 -79.59375 C 9.601562 -81.40625 12.117188 -82.3125 15.203125 -82.3125 C 18.222656 -82.3125 20.707031 -81.40625 22.65625 -79.59375 C 24.613281 -77.78125 25.59375 -75.503906 25.59375 -72.765625 C 25.59375 -70.085938 24.613281 -67.835938 22.65625 -66.015625 C 20.707031 -64.203125 18.222656 -63.296875 15.203125 -63.296875 Z M 23.9375 -57.34375 L 23.9375 0 L 6.375 0 L 6.375 -57.34375 Z M 23.9375 -57.34375 "/></g></g></g></g></g></g></svg>